<svg width="389" height="49" viewBox="0 0 389 49" fill="none" xmlns="http://www.w3.org/2000/svg">
<path d="M34.4545 16C33.9545 14.4697 33.2955 13.0985 32.4773 11.8864C31.6742 10.6591 30.7121 9.61363 29.5909 8.75C28.4849 7.88636 27.2273 7.22727 25.8182 6.77272C24.4091 6.31818 22.8636 6.09091 21.1818 6.09091C18.4242 6.09091 15.9167 6.80303 13.6591 8.22727C11.4015 9.65151 9.60606 11.75 8.27273 14.5227C6.93939 17.2955 6.27273 20.697 6.27273 24.7273C6.27273 28.7576 6.94697 32.1591 8.29545 34.9318C9.64394 37.7045 11.4697 39.803 13.7727 41.2273C16.0758 42.6515 18.6667 43.3636 21.5455 43.3636C24.2121 43.3636 26.5606 42.7955 28.5909 41.6591C30.6364 40.5076 32.2273 38.8864 33.3636 36.7955C34.5152 34.6894 35.0909 32.2121 35.0909 29.3636L36.8182 29.7273H22.8182V24.7273H40.5455V29.7273C40.5455 33.5606 39.7273 36.8939 38.0909 39.7273C36.4697 42.5606 34.2273 44.7576 31.3636 46.3182C28.5152 47.8636 25.2424 48.6364 21.5455 48.6364C17.4242 48.6364 13.803 47.6667 10.6818 45.7273C7.57576 43.7879 5.15152 41.0303 3.40909 37.4545C1.68182 33.8788 0.818182 29.6364 0.818182 24.7273C0.818182 21.0455 1.31061 17.7348 2.29545 14.7955C3.29545 11.8409 4.70455 9.32576 6.52273 7.25C8.34091 5.17424 10.4924 3.58333 12.9773 2.47727C15.4621 1.37121 18.197 0.81818 21.1818 0.81818C23.6364 0.81818 25.9242 1.18939 28.0455 1.93182C30.1818 2.65909 32.0833 3.69697 33.75 5.04545C35.4318 6.37879 36.8333 7.97727 37.9545 9.84091C39.0758 11.6894 39.8485 13.7424 40.2727 16H34.4545ZM49.4716 48V13.0909H54.6534V18.3636H55.017C55.6534 16.6364 56.8049 15.2348 58.4716 14.1591C60.1383 13.0833 62.017 12.5455 64.108 12.5455C64.5019 12.5455 64.9943 12.553 65.5852 12.5682C66.1761 12.5833 66.6231 12.6061 66.9261 12.6364V18.0909C66.7443 18.0455 66.3277 17.9773 65.6761 17.8864C65.0398 17.7803 64.3655 17.7273 63.6534 17.7273C61.9564 17.7273 60.4413 18.0833 59.108 18.7955C57.7898 19.4924 56.7443 20.4621 55.9716 21.7045C55.214 22.9318 54.8352 24.3333 54.8352 25.9091V48H49.4716ZM86.858 48.7273C83.4943 48.7273 80.5928 47.9848 78.1534 46.5C75.7292 45 73.858 42.9091 72.5398 40.2273C71.2367 37.5303 70.5852 34.3939 70.5852 30.8182C70.5852 27.2424 71.2367 24.0909 72.5398 21.3636C73.858 18.6212 75.6913 16.4848 78.0398 14.9545C80.4034 13.4091 83.161 12.6364 86.3125 12.6364C88.1307 12.6364 89.9261 12.9394 91.6989 13.5455C93.4716 14.1515 95.0852 15.1364 96.5398 16.5C97.9943 17.8485 99.1534 19.6364 100.017 21.8636C100.881 24.0909 101.312 26.8333 101.312 30.0909V32.3636H74.4034V27.7273H95.858C95.858 25.7576 95.464 24 94.6761 22.4545C93.9034 20.9091 92.7973 19.6894 91.358 18.7955C89.9337 17.9015 88.2519 17.4545 86.3125 17.4545C84.1761 17.4545 82.3277 17.9848 80.767 19.0455C79.2216 20.0909 78.0322 21.4545 77.1989 23.1364C76.3655 24.8182 75.9489 26.6212 75.9489 28.5455V31.6364C75.9489 34.2727 76.4034 36.5076 77.3125 38.3409C78.2367 40.1591 79.517 41.5455 81.1534 42.5C82.7898 43.4394 84.6913 43.9091 86.858 43.9091C88.267 43.9091 89.5398 43.7121 90.6761 43.3182C91.8277 42.9091 92.8201 42.303 93.6534 41.5C94.4867 40.6818 95.1307 39.6667 95.5852 38.4545L100.767 39.9091C100.222 41.6667 99.3049 43.2121 98.017 44.5455C96.7292 45.8636 95.1383 46.8939 93.2443 47.6364C91.3504 48.3636 89.2216 48.7273 86.858 48.7273ZM124.108 48.7273C120.744 48.7273 117.843 47.9848 115.403 46.5C112.979 45 111.108 42.9091 109.79 40.2273C108.487 37.5303 107.835 34.3939 107.835 30.8182C107.835 27.2424 108.487 24.0909 109.79 21.3636C111.108 18.6212 112.941 16.4848 115.29 14.9545C117.653 13.4091 120.411 12.6364 123.562 12.6364C125.381 12.6364 127.176 12.9394 128.949 13.5455C130.722 14.1515 132.335 15.1364 133.79 16.5C135.244 17.8485 136.403 19.6364 137.267 21.8636C138.131 24.0909 138.562 26.8333 138.562 30.0909V32.3636H111.653V27.7273H133.108C133.108 25.7576 132.714 24 131.926 22.4545C131.153 20.9091 130.047 19.6894 128.608 18.7955C127.184 17.9015 125.502 17.4545 123.562 17.4545C121.426 17.4545 119.578 17.9848 118.017 19.0455C116.472 20.0909 115.282 21.4545 114.449 23.1364C113.616 24.8182 113.199 26.6212 113.199 28.5455V31.6364C113.199 34.2727 113.653 36.5076 114.562 38.3409C115.487 40.1591 116.767 41.5455 118.403 42.5C120.04 43.4394 121.941 43.9091 124.108 43.9091C125.517 43.9091 126.79 43.7121 127.926 43.3182C129.078 42.9091 130.07 42.303 130.903 41.5C131.737 40.6818 132.381 39.6667 132.835 38.4545L138.017 39.9091C137.472 41.6667 136.555 43.2121 135.267 44.5455C133.979 45.8636 132.388 46.8939 130.494 47.6364C128.6 48.3636 126.472 48.7273 124.108 48.7273ZM152.085 27V48H146.722V13.0909H151.903V18.5455H152.358C153.176 16.7727 154.419 15.3485 156.085 14.2727C157.752 13.1818 159.903 12.6364 162.54 12.6364C164.903 12.6364 166.972 13.1212 168.744 14.0909C170.517 15.0455 171.896 16.5 172.881 18.4545C173.866 20.3939 174.358 22.8485 174.358 25.8182V48H168.994V26.1818C168.994 23.4394 168.282 21.303 166.858 19.7727C165.434 18.2273 163.479 17.4545 160.994 17.4545C159.282 17.4545 157.752 17.8258 156.403 18.5682C155.07 19.3106 154.017 20.3939 153.244 21.8182C152.472 23.2424 152.085 24.9697 152.085 27ZM216.705 16C216.205 14.4697 215.545 13.0985 214.727 11.8864C213.924 10.6591 212.962 9.61363 211.841 8.75C210.735 7.88636 209.477 7.22727 208.068 6.77272C206.659 6.31818 205.114 6.09091 203.432 6.09091C200.674 6.09091 198.167 6.80303 195.909 8.22727C193.652 9.65151 191.856 11.75 190.523 14.5227C189.189 17.2955 188.523 20.697 188.523 24.7273C188.523 28.7576 189.197 32.1591 190.545 34.9318C191.894 37.7045 193.72 39.803 196.023 41.2273C198.326 42.6515 200.917 43.3636 203.795 43.3636C206.462 43.3636 208.811 42.7955 210.841 41.6591C212.886 40.5076 214.477 38.8864 215.614 36.7955C216.765 34.6894 217.341 32.2121 217.341 29.3636L219.068 29.7273H205.068V24.7273H222.795V29.7273C222.795 33.5606 221.977 36.8939 220.341 39.7273C218.72 42.5606 216.477 44.7576 213.614 46.3182C210.765 47.8636 207.492 48.6364 203.795 48.6364C199.674 48.6364 196.053 47.6667 192.932 45.7273C189.826 43.7879 187.402 41.0303 185.659 37.4545C183.932 33.8788 183.068 29.6364 183.068 24.7273C183.068 21.0455 183.561 17.7348 184.545 14.7955C185.545 11.8409 186.955 9.32576 188.773 7.25C190.591 5.17424 192.742 3.58333 195.227 2.47727C197.712 1.37121 200.447 0.81818 203.432 0.81818C205.886 0.81818 208.174 1.18939 210.295 1.93182C212.432 2.65909 214.333 3.69697 216 5.04545C217.682 6.37879 219.083 7.97727 220.205 9.84091C221.326 11.6894 222.098 13.7424 222.523 16H216.705ZM231.722 48V13.0909H236.903V18.3636H237.267C237.903 16.6364 239.055 15.2348 240.722 14.1591C242.388 13.0833 244.267 12.5455 246.358 12.5455C246.752 12.5455 247.244 12.553 247.835 12.5682C248.426 12.5833 248.873 12.6061 249.176 12.6364V18.0909C248.994 18.0455 248.578 17.9773 247.926 17.8864C247.29 17.7803 246.616 17.7273 245.903 17.7273C244.206 17.7273 242.691 18.0833 241.358 18.7955C240.04 19.4924 238.994 20.4621 238.222 21.7045C237.464 22.9318 237.085 24.3333 237.085 25.9091V48H231.722ZM268.653 48.7273C265.502 48.7273 262.737 47.9773 260.358 46.4773C257.994 44.9773 256.146 42.8788 254.812 40.1818C253.494 37.4848 252.835 34.3333 252.835 30.7273C252.835 27.0909 253.494 23.9167 254.812 21.2045C256.146 18.4924 257.994 16.3864 260.358 14.8864C262.737 13.3864 265.502 12.6364 268.653 12.6364C271.805 12.6364 274.563 13.3864 276.926 14.8864C279.305 16.3864 281.153 18.4924 282.472 21.2045C283.805 23.9167 284.472 27.0909 284.472 30.7273C284.472 34.3333 283.805 37.4848 282.472 40.1818C281.153 42.8788 279.305 44.9773 276.926 46.4773C274.563 47.9773 271.805 48.7273 268.653 48.7273ZM268.653 43.9091C271.047 43.9091 273.017 43.2955 274.562 42.0682C276.108 40.8409 277.252 39.2273 277.994 37.2273C278.737 35.2273 279.108 33.0606 279.108 30.7273C279.108 28.3939 278.737 26.2197 277.994 24.2045C277.252 22.1894 276.108 20.5606 274.562 19.3182C273.017 18.0758 271.047 17.4545 268.653 17.4545C266.259 17.4545 264.29 18.0758 262.744 19.3182C261.199 20.5606 260.055 22.1894 259.312 24.2045C258.57 26.2197 258.199 28.3939 258.199 30.7273C258.199 33.0606 258.57 35.2273 259.312 37.2273C260.055 39.2273 261.199 40.8409 262.744 42.0682C264.29 43.2955 266.259 43.9091 268.653 43.9091ZM319.955 13.0909L307.045 48H301.591L288.682 13.0909H294.5L304.136 40.9091H304.5L314.136 13.0909H319.955ZM340.42 48.7273C337.057 48.7273 334.155 47.9848 331.716 46.5C329.292 45 327.42 42.9091 326.102 40.2273C324.799 37.5303 324.148 34.3939 324.148 30.8182C324.148 27.2424 324.799 24.0909 326.102 21.3636C327.42 18.6212 329.254 16.4848 331.602 14.9545C333.966 13.4091 336.723 12.6364 339.875 12.6364C341.693 12.6364 343.489 12.9394 345.261 13.5455C347.034 14.1515 348.648 15.1364 350.102 16.5C351.557 17.8485 352.716 19.6364 353.58 21.8636C354.443 24.0909 354.875 26.8333 354.875 30.0909V32.3636H327.966V27.7273H349.42C349.42 25.7576 349.027 24 348.239 22.4545C347.466 20.9091 346.36 19.6894 344.92 18.7955C343.496 17.9015 341.814 17.4545 339.875 17.4545C337.739 17.4545 335.89 17.9848 334.33 19.0455C332.784 20.0909 331.595 21.4545 330.761 23.1364C329.928 24.8182 329.511 26.6212 329.511 28.5455V31.6364C329.511 34.2727 329.966 36.5076 330.875 38.3409C331.799 40.1591 333.08 41.5455 334.716 42.5C336.352 43.4394 338.254 43.9091 340.42 43.9091C341.83 43.9091 343.102 43.7121 344.239 43.3182C345.39 42.9091 346.383 42.303 347.216 41.5C348.049 40.6818 348.693 39.6667 349.148 38.4545L354.33 39.9091C353.784 41.6667 352.867 43.2121 351.58 44.5455C350.292 45.8636 348.701 46.8939 346.807 47.6364C344.913 48.3636 342.784 48.7273 340.42 48.7273ZM387.761 20.9091L382.943 22.2727C382.64 21.4697 382.193 20.6894 381.602 19.9318C381.027 19.1591 380.239 18.5227 379.239 18.0227C378.239 17.5227 376.958 17.2727 375.398 17.2727C373.261 17.2727 371.481 17.7652 370.057 18.75C368.648 19.7197 367.943 20.9545 367.943 22.4545C367.943 23.7879 368.428 24.8409 369.398 25.6136C370.367 26.3864 371.883 27.0303 373.943 27.5455L379.125 28.8182C382.246 29.5758 384.572 30.7348 386.102 32.2955C387.633 33.8409 388.398 35.8333 388.398 38.2727C388.398 40.2727 387.822 42.0606 386.67 43.6364C385.534 45.2121 383.943 46.4545 381.898 47.3636C379.852 48.2727 377.473 48.7273 374.761 48.7273C371.201 48.7273 368.254 47.9545 365.92 46.4091C363.587 44.8636 362.11 42.6061 361.489 39.6364L366.58 38.3636C367.064 40.2424 367.981 41.6515 369.33 42.5909C370.693 43.5303 372.473 44 374.67 44C377.17 44 379.155 43.4697 380.625 42.4091C382.11 41.3333 382.852 40.0455 382.852 38.5455C382.852 37.3333 382.428 36.3182 381.58 35.5C380.731 34.6667 379.428 34.0455 377.67 33.6364L371.852 32.2727C368.655 31.5152 366.307 30.3409 364.807 28.75C363.322 27.1439 362.58 25.1364 362.58 22.7273C362.58 20.7576 363.133 19.0152 364.239 17.5C365.36 15.9848 366.883 14.7955 368.807 13.9318C370.746 13.0682 372.943 12.6364 375.398 12.6364C378.852 12.6364 381.564 13.3939 383.534 14.9091C385.519 16.4242 386.928 18.4242 387.761 20.9091Z" fill="white"/>
</svg>
